{
    "asset" : {
        "generator" : "Khronos glTF Blender I/O v3.2.43",
        "version" : "2.0"
    },
    "scene" : 0,
    "scenes" : [
        {
            "name" : "Scene",
            "nodes" : [
                0
            ]
        }
    ],
    "nodes" : [
        {
            "mesh" : 0,
            "name" : "bnc",
            "rotation" : [
                0.4927970767021179,
                -0.49281933903694153,
                0.5071081519126892,
                0.5070714950561523
            ],
            "translation" : [
                0.9498286247253418,
                0,
                0.018841028213500977
            ]
        }
    ],
    "materials" : [
        {
            "doubleSided" : true,
            "name" : "Material.006",
            "pbrMetallicRoughness" : {
                "baseColorFactor" : [
                    0.800000011920929,
                    0.800000011920929,
                    0.800000011920929,
                    1
                ],
                "roughnessFactor" : 0.3268156349658966
            }
        },
        {
            "doubleSided" : true,
            "name" : "Material.001",
            "pbrMetallicRoughness" : {
                "baseColorFactor" : [
                    0.800000011920929,
                    0.800000011920929,
                    0.800000011920929,
                    1
                ],
                "roughnessFactor" : 0.3268156349658966
            }
        },
        {
            "doubleSided" : true,
            "name" : "Material.003",
            "pbrMetallicRoughness" : {
                "baseColorFactor" : [
                    0.0010315031977370381,
                    0.0010315031977370381,
                    0.0010315031977370381,
                    1
                ],
                "metallicFactor" : 0,
                "roughnessFactor" : 0.5
            }
        },
        {
            "doubleSided" : true,
            "name" : "Gold 01",
            "normalTexture" : {
                "index" : 0,
                "texCoord" : 1
            },
            "pbrMetallicRoughness" : {
                "baseColorTexture" : {
                    "index" : 1,
                    "texCoord" : 1
                },
                "metallicRoughnessTexture" : {
                    "index" : 2,
                    "texCoord" : 1
                }
            }
        }
    ],
    "meshes" : [
        {
            "name" : "Cylinder.046",
            "primitives" : [
                {
                    "attributes" : {
                        "POSITION" : 0,
                        "NORMAL" : 1,
                        "TEXCOORD_0" : 2,
                        "TEXCOORD_1" : 3
                    },
                    "indices" : 4,
                    "material" : 0
                },
                {
                    "attributes" : {
                        "POSITION" : 5,
                        "NORMAL" : 6,
                        "TEXCOORD_0" : 7,
                        "TEXCOORD_1" : 8
                    },
                    "indices" : 9,
                    "material" : 1
                },
                {
                    "attributes" : {
                        "POSITION" : 10,
                        "NORMAL" : 11,
                        "TEXCOORD_0" : 12,
                        "TEXCOORD_1" : 13
                    },
                    "indices" : 14,
                    "material" : 2
                },
                {
                    "attributes" : {
                        "POSITION" : 15,
                        "NORMAL" : 16,
                        "TEXCOORD_0" : 17,
                        "TEXCOORD_1" : 18
                    },
                    "indices" : 19,
                    "material" : 3
                }
            ]
        }
    ],
    "textures" : [
        {
            "sampler" : 0,
            "source" : 0
        },
        {
            "sampler" : 0,
            "source" : 1
        },
        {
            "sampler" : 0,
            "source" : 2
        }
    ],
    "images" : [
        {
            "mimeType" : "image/png",
            "name" : "Gold 01_normal",
            "uri" : "Gold%2001_normal.png"
        },
        {
            "mimeType" : "image/png",
            "name" : "Gold 01_baseColor",
            "uri" : "Gold%2001_baseColor.png"
        },
        {
            "mimeType" : "image/png",
            "name" : "Gold 01_roughness",
            "uri" : "Gold%2001_roughness.png"
        }
    ],
    "accessors" : [
        {
            "bufferView" : 0,
            "componentType" : 5126,
            "count" : 36245,
            "max" : [
                1.2366231679916382,
                3.271249771118164,
                1.236554741859436
            ],
            "min" : [
                -1.2365354299545288,
                -0.6593250036239624,
                -1.2365750074386597
            ],
            "type" : "VEC3"
        },
        {
            "bufferView" : 1,
            "componentType" : 5126,
            "count" : 36245,
            "type" : "VEC3"
        },
        {
            "bufferView" : 2,
            "componentType" : 5126,
            "count" : 36245,
            "type" : "VEC2"
        },
        {
            "bufferView" : 3,
            "componentType" : 5126,
            "count" : 36245,
            "type" : "VEC2"
        },
        {
            "bufferView" : 4,
            "componentType" : 5123,
            "count" : 87114,
            "type" : "SCALAR"
        },
        {
            "bufferView" : 5,
            "componentType" : 5126,
            "count" : 43129,
            "max" : [
                0.9687885046005249,
                -0.659801721572876,
                0.9742307662963867
            ],
            "min" : [
                -0.9691774845123291,
                -0.8974658250808716,
                -0.9637263417243958
            ],
            "type" : "VEC3"
        },
        {
            "bufferView" : 6,
            "componentType" : 5126,
            "count" : 43129,
            "type" : "VEC3"
        },
        {
            "bufferView" : 7,
            "componentType" : 5126,
            "count" : 43129,
            "type" : "VEC2"
        },
        {
            "bufferView" : 8,
            "componentType" : 5126,
            "count" : 43129,
            "type" : "VEC2"
        },
        {
            "bufferView" : 9,
            "componentType" : 5123,
            "count" : 229053,
            "type" : "SCALAR"
        },
        {
            "bufferView" : 10,
            "componentType" : 5126,
            "count" : 2782,
            "max" : [
                -0.10662628710269928,
                -0.6598117351531982,
                0.6338269710540771
            ],
            "min" : [
                -0.80445396900177,
                -0.8969240188598633,
                -0.8529576659202576
            ],
            "type" : "VEC3"
        },
        {
            "bufferView" : 11,
            "componentType" : 5126,
            "count" : 2782,
            "type" : "VEC3"
        },
        {
            "bufferView" : 12,
            "componentType" : 5126,
            "count" : 2782,
            "type" : "VEC2"
        },
        {
            "bufferView" : 13,
            "componentType" : 5126,
            "count" : 2782,
            "type" : "VEC2"
        },
        {
            "bufferView" : 14,
            "componentType" : 5123,
            "count" : 14325,
            "type" : "SCALAR"
        },
        {
            "bufferView" : 15,
            "componentType" : 5126,
            "count" : 1800,
            "max" : [
                0.0630088597536087,
                0.7149156332015991,
                0.0629575103521347
            ],
            "min" : [
                -0.06292526423931122,
                -0.8679474592208862,
                -0.06297661364078522
            ],
            "type" : "VEC3"
        },
        {
            "bufferView" : 16,
            "componentType" : 5126,
            "count" : 1800,
            "type" : "VEC3"
        },
        {
            "bufferView" : 17,
            "componentType" : 5126,
            "count" : 1800,
            "type" : "VEC2"
        },
        {
            "bufferView" : 18,
            "componentType" : 5126,
            "count" : 1800,
            "type" : "VEC2"
        },
        {
            "bufferView" : 19,
            "componentType" : 5123,
            "count" : 6900,
            "type" : "SCALAR"
        }
    ],
    "bufferViews" : [
        {
            "buffer" : 0,
            "byteLength" : 434940,
            "byteOffset" : 0
        },
        {
            "buffer" : 0,
            "byteLength" : 434940,
            "byteOffset" : 434940
        },
        {
            "buffer" : 0,
            "byteLength" : 289960,
            "byteOffset" : 869880
        },
        {
            "buffer" : 0,
            "byteLength" : 289960,
            "byteOffset" : 1159840
        },
        {
            "buffer" : 0,
            "byteLength" : 174228,
            "byteOffset" : 1449800
        },
        {
            "buffer" : 0,
            "byteLength" : 517548,
            "byteOffset" : 1624028
        },
        {
            "buffer" : 0,
            "byteLength" : 517548,
            "byteOffset" : 2141576
        },
        {
            "buffer" : 0,
            "byteLength" : 345032,
            "byteOffset" : 2659124
        },
        {
            "buffer" : 0,
            "byteLength" : 345032,
            "byteOffset" : 3004156
        },
        {
            "buffer" : 0,
            "byteLength" : 458106,
            "byteOffset" : 3349188
        },
        {
            "buffer" : 0,
            "byteLength" : 33384,
            "byteOffset" : 3807296
        },
        {
            "buffer" : 0,
            "byteLength" : 33384,
            "byteOffset" : 3840680
        },
        {
            "buffer" : 0,
            "byteLength" : 22256,
            "byteOffset" : 3874064
        },
        {
            "buffer" : 0,
            "byteLength" : 22256,
            "byteOffset" : 3896320
        },
        {
            "buffer" : 0,
            "byteLength" : 28650,
            "byteOffset" : 3918576
        },
        {
            "buffer" : 0,
            "byteLength" : 21600,
            "byteOffset" : 3947228
        },
        {
            "buffer" : 0,
            "byteLength" : 21600,
            "byteOffset" : 3968828
        },
        {
            "buffer" : 0,
            "byteLength" : 14400,
            "byteOffset" : 3990428
        },
        {
            "buffer" : 0,
            "byteLength" : 14400,
            "byteOffset" : 4004828
        },
        {
            "buffer" : 0,
            "byteLength" : 13800,
            "byteOffset" : 4019228
        }
    ],
    "samplers" : [
        {
            "magFilter" : 9729,
            "minFilter" : 9987
        }
    ],
    "buffers" : [
        {
            "byteLength" : 4033028,
            "uri" : "bnc2.bin"
        }
    ]
}
